<?xml version="1.0" standalone="no"?>
<!DOCTYPE svg PUBLIC "-//W3C//DTD SVG 20010904//EN"
 "http://www.w3.org/TR/2001/REC-SVG-20010904/DTD/svg10.dtd">
<svg version="1.0" xmlns="http://www.w3.org/2000/svg"
 width="1280.000000pt" height="1278.000000pt" viewBox="0 0 1280.000000 1278.000000"
 preserveAspectRatio="xMidYMid meet">
<metadata>
Created by potrace 1.15, written by Peter Selinger 2001-2017
</metadata>
<g transform="translate(0.000000,1278.000000) scale(0.100000,-0.100000)"
fill="#673ab7" stroke="none">
<path d="M5980 12774 c-442 -22 -921 -106 -1400 -244 -565 -163 -1176 -447
-1665 -773 -886 -592 -1585 -1340 -2095 -2242 -246 -435 -418 -831 -530 -1216
-295 -1018 -362 -1938 -210 -2899 280 -1765 1275 -3324 2755 -4315 404 -271
920 -535 1340 -687 480 -174 956 -289 1430 -347 314 -39 427 -45 795 -45 392
0 563 12 900 60 1869 268 3519 1341 4517 2939 228 364 456 820 588 1175 159
427 296 1033 349 1545 39 368 53 970 28 1170 -35 273 -85 622 -92 640 -5 11
-23 92 -40 180 -67 337 -212 821 -330 1100 -74 174 -365 763 -390 790 -10 11
-62 90 -116 175 -107 172 -234 354 -390 559 -146 192 -176 228 -331 393 -415
441 -917 844 -1428 1148 -77 45 -167 100 -200 120 -276 174 -663 350 -1015
462 -193 61 -611 171 -650 170 -19 0 -101 13 -182 29 -196 38 -453 75 -668 94
-167 16 -793 27 -970 19z m1302 -89 c320 -46 710 -132 938 -207 352 -115 750
-353 965 -578 l50 -52 -62 31 c-171 85 -535 235 -768 315 -84 30 -148 60 -206
98 -230 150 -561 288 -854 357 -221 52 -250 59 -243 60 3 1 84 -10 180 -24z
m-2692 -466 c-364 -113 -712 -269 -1020 -459 -122 -75 -153 -89 -325 -145
-182 -59 -396 -141 -487 -185 l-43 -21 40 37 c120 109 459 345 675 469 201
115 592 225 1135 319 123 21 129 17 25 -15z m2245 -10 c264 -40 886 -178 946
-209 27 -15 105 -129 138 -202 35 -77 61 -189 61 -261 l0 -54 -177 54 c-98 29
-254 74 -347 98 -93 24 -170 45 -171 47 -1 2 -14 28 -28 60 -85 189 -272 344
-587 486 l-25 11 25 -4 c14 -2 88 -14 165 -26z m-998 -214 c173 -21 447 -97
486 -134 4 -4 -40 -1 -98 6 -299 36 -515 47 -920 47 -225 1 -435 -2 -465 -6
-92 -12 -24 8 139 42 82 17 201 37 263 44 156 19 446 19 595 1z m4078 -309
c146 -97 330 -232 485 -357 145 -116 213 -189 344 -369 46 -62 116 -175 116
-187 0 -3 -26 18 -57 47 -89 81 -334 276 -485 384 -129 94 -140 104 -204 199
-40 59 -120 155 -194 231 -69 71 -118 126 -110 121 8 -5 56 -36 105 -69z
m-925 -128 c212 -97 504 -246 541 -277 23 -19 24 -23 24 -178 -1 -121 -5 -173
-19 -223 -10 -36 -20 -68 -22 -71 -2 -4 -57 22 -122 58 -137 76 -386 201 -525
264 l-99 44 7 35 c18 101 24 182 19 240 -6 60 -26 157 -41 196 -9 23 8 17 237
-88z m-4660 -253 c0 -3 -30 -25 -67 -49 -197 -126 -433 -345 -581 -537 l-81
-106 -54 -6 c-80 -10 -384 -72 -537 -111 -74 -19 -136 -33 -137 -32 -5 5 91
151 161 246 90 124 202 253 318 368 88 86 99 94 155 107 146 34 525 93 763
118 19 2 41 5 48 5 6 1 12 0 12 -3z m1464 -55 c182 -21 333 -77 445 -165 46
-36 133 -135 119 -135 -2 0 -27 9 -57 20 -188 72 -457 71 -682 -1 -143 -45
-381 -183 -438 -252 -12 -15 -49 -17 -369 -17 l-356 0 54 56 c244 249 604 436
930 483 157 23 228 25 354 11z m783 -56 l93 -16 -18 -30 c-37 -64 -240 -233
-217 -181 14 30 18 177 7 217 -11 37 -11 37 16 32 15 -3 69 -13 119 -22z m623
-137 c237 -64 360 -100 360 -108 0 -13 -166 -77 -271 -104 -86 -22 -134 -28
-277 -32 -212 -7 -334 10 -497 70 l-40 15 35 5 c19 3 71 11 114 17 43 7 112
23 153 36 74 24 211 89 248 118 27 21 33 21 175 -17z m-4700 -243 c-95 -118
-242 -341 -323 -489 -36 -66 -70 -124 -74 -128 -4 -4 -89 -48 -188 -96 -99
-49 -223 -114 -275 -144 -52 -31 -96 -54 -98 -52 -5 5 94 199 161 315 33 58
102 168 153 246 l94 140 82 46 c158 88 526 261 536 253 2 -2 -29 -43 -68 -91z
m3787 45 c-60 -39 -119 -106 -167 -189 l-38 -66 -151 22 c-83 11 -153 23 -156
26 -10 9 105 96 177 133 112 59 253 103 337 104 l44 1 -46 -31z m159 -45 c72
-106 218 -213 383 -283 87 -37 261 -84 376 -103 128 -20 418 -15 555 10 193
35 381 101 521 183 40 23 78 42 84 42 28 0 736 -333 764 -359 17 -16 -142
-120 -304 -199 -134 -66 -250 -108 -392 -145 l-82 -21 -103 45 c-518 224
-1057 396 -1628 520 -91 20 -174 38 -186 41 -40 9 -67 178 -44 274 6 28 13 51
14 51 2 0 20 -25 42 -56z m4029 -149 c155 -121 298 -241 430 -361 l115 -105 0
-72 c0 -127 -50 -386 -73 -380 -5 1 -63 51 -130 112 -142 128 -292 253 -430
359 -66 51 -96 80 -92 90 34 90 71 323 63 403 -2 21 -1 39 2 39 3 0 54 -38
115 -85z m1123 -615 c108 -154 323 -493 295 -465 -5 6 -47 64 -93 130 -46 66
-118 165 -160 220 -42 55 -93 136 -114 180 -45 96 -34 86 72 -65z m-10343 -22
c-80 -141 -167 -310 -221 -433 -51 -116 -65 -139 -131 -209 -41 -43 -104 -118
-140 -165 -37 -47 -70 -90 -75 -96 -22 -25 26 81 147 319 127 253 285 516 309
516 6 0 41 29 76 65 35 36 66 65 68 65 2 0 -13 -28 -33 -62z m3535 -198 c0
-214 80 -519 181 -697 17 -30 30 -55 28 -57 -2 -1 -53 1 -114 6 -60 5 -261 9
-447 10 l-336 1 -21 101 c-31 149 -40 235 -41 386 0 122 14 298 26 309 7 7
278 18 507 19 l217 2 0 -80z m990 -10 c113 -16 300 -48 417 -71 l212 -41 60
-48 c362 -290 921 -480 1491 -506 l135 -7 200 -98 c301 -147 530 -277 820
-467 115 -75 155 -106 145 -112 -8 -4 -76 -20 -150 -34 -378 -71 -741 -91
-1095 -61 -268 23 -313 31 -432 81 -298 125 -637 243 -958 333 -129 37 -196
61 -240 88 -378 230 -663 542 -788 863 -34 88 -40 110 -30 110 4 0 100 -13
213 -30z m-2533 -62 c-31 -178 -39 -303 -33 -493 3 -110 9 -214 12 -232 6 -30
5 -32 -32 -38 -197 -34 -635 -135 -696 -160 -17 -7 -18 6 -18 186 0 189 16
381 44 529 8 39 16 72 17 74 25 18 628 163 688 165 21 1 23 -2 18 -31z m6848
-71 c225 -169 545 -439 545 -460 0 -31 -241 -240 -401 -348 l-87 -58 -93 76
c-150 122 -356 274 -532 391 l-163 109 106 54 c129 66 309 186 410 272 41 36
80 62 85 59 6 -3 64 -46 130 -95z m1633 -289 c91 -123 234 -337 316 -474 73
-123 75 -132 56 -281 -13 -96 -51 -273 -59 -273 -3 0 -31 42 -61 93 -79 134
-215 335 -314 467 -60 79 -86 121 -83 135 3 11 12 48 21 81 25 95 46 223 46
287 0 31 2 57 4 57 3 0 35 -42 74 -92z m-9933 -158 c-25 -138 -45 -370 -45
-531 l0 -145 -144 -73 c-116 -58 -282 -152 -415 -235 -30 -19 1 441 45 687
l16 88 57 38 c146 99 494 287 499 270 2 -5 -3 -50 -13 -99z m-1089 -767 c-25
-169 -35 -285 -42 -473 l-7 -175 -61 -65 c-67 -71 -160 -185 -220 -267 -21
-29 -40 -53 -43 -53 -12 0 21 421 48 599 21 148 26 158 125 298 61 85 206 254
213 247 2 -2 -4 -52 -13 -111z m10713 -92 c113 -151 276 -391 335 -493 l27
-46 -80 -100 c-71 -88 -294 -312 -310 -312 -3 0 -33 42 -66 92 -79 122 -287
400 -387 516 -44 51 -78 94 -76 96 82 51 418 369 418 397 0 27 30 -6 139 -150z
m-6518 -246 c637 -52 1321 -190 1698 -342 119 -48 248 -92 524 -180 43 -13
148 -56 233 -94 431 -193 821 -417 1166 -667 146 -107 377 -292 378 -303 0 -3
-87 -9 -193 -12 -1065 -32 -2163 233 -3032 733 -383 220 -762 526 -1013 818
l-54 62 59 0 c32 0 137 -7 234 -15z m-1326 -132 c125 -222 305 -470 471 -651
48 -51 85 -94 83 -96 -2 -2 -99 -8 -215 -15 -230 -12 -481 -39 -687 -72 l-131
-21 -16 22 c-117 168 -312 535 -377 707 l-31 83 37 10 c76 21 361 80 486 100
72 11 155 24 185 29 30 5 73 9 95 10 l40 1 60 -107z m9001 -308 c80 -277 117
-470 109 -565 -7 -89 -31 -243 -44 -285 -10 -36 -7 -48 -65 192 -26 105 -70
263 -99 350 l-53 158 18 65 c15 56 33 148 55 290 5 34 5 35 15 10 5 -14 34
-110 64 -215z m-2295 -83 c159 -163 427 -485 482 -579 14 -23 -321 -166 -590
-253 l-157 -50 -50 57 c-197 224 -483 499 -678 653 -31 25 -57 48 -58 51 0 4
24 9 53 13 179 24 591 132 777 205 41 16 80 29 86 30 6 1 67 -56 135 -127z
m-8356 -29 c49 -158 144 -390 221 -545 35 -70 64 -129 64 -132 0 -2 -55 -25
-122 -52 -68 -26 -215 -94 -327 -151 -113 -56 -206 -101 -208 -100 -13 13
-124 299 -167 430 -52 157 -102 345 -95 351 27 23 237 139 394 217 110 54 201
99 202 99 0 0 18 -53 38 -117z m-1841 -545 c-3 -84 -12 -175 -20 -203 l-13
-50 0 40 c0 22 6 105 14 185 8 80 15 153 15 163 0 9 2 17 6 17 3 0 2 -69 -2
-152z m12149 -193 c63 -192 95 -309 131 -473 l24 -113 -36 -52 c-78 -114 -282
-357 -300 -357 -4 0 -20 53 -35 117 -35 145 -105 370 -163 528 l-45 120 94 97
c93 95 199 221 241 285 12 18 24 29 27 25 4 -4 32 -83 62 -177z m-11358 -335
c20 -63 55 -162 77 -219 l40 -103 -74 -77 c-87 -88 -187 -204 -241 -279 -22
-28 -43 -50 -47 -47 -22 14 -144 423 -193 648 l-24 108 27 42 c46 72 146 196
231 289 l82 89 42 -168 c23 -92 59 -220 80 -283z m3910 -265 c1175 -110 2198
-508 2970 -1154 102 -86 329 -310 394 -388 l43 -53 -34 0 c-55 0 -303 19 -458
36 -562 58 -1160 188 -1511 327 -90 36 -256 95 -369 130 -576 181 -1295 586
-1825 1029 l-100 83 95 6 c149 10 618 1 795 -16z m6488 -102 c94 -211 247
-681 234 -717 -3 -7 -49 -40 -104 -72 -106 -64 -460 -244 -480 -244 -6 0 -33
64 -59 143 -61 183 -129 349 -210 511 -35 71 -63 130 -61 132 2 2 59 26 127
55 135 55 375 170 455 217 28 17 55 30 61 31 6 1 23 -25 37 -56z m-8432 -135
c146 -170 439 -453 654 -632 39 -33 71 -62 73 -66 1 -4 -23 -10 -55 -14 -169
-20 -538 -116 -768 -201 l-100 -36 -110 113 c-176 181 -511 590 -500 609 7 11
249 117 387 170 105 40 337 117 359 119 3 0 30 -28 60 -62z m-2657 -70 c18
-113 106 -433 164 -596 l29 -82 -18 -68 c-25 -88 -49 -226 -49 -279 0 -24 -3
-43 -7 -43 -18 0 -122 373 -169 605 -25 121 -26 137 -16 235 13 126 43 281 52
275 4 -3 10 -23 14 -47z m12554 -45 c-12 -150 -16 -162 -14 -48 1 92 7 135 20
135 1 0 -1 -39 -6 -87z m-2910 -430 c95 -158 203 -372 261 -518 l40 -100 -22
-8 c-76 -29 -582 -123 -767 -142 l-55 -6 -50 93 c-110 203 -310 481 -489 678
l-77 85 88 7 c48 4 165 12 258 18 187 12 433 41 583 69 l97 18 25 -28 c14 -15
62 -90 108 -166z m-8358 -174 c100 -154 261 -367 418 -555 l52 -62 -94 -76
c-52 -42 -151 -135 -219 -206 l-124 -129 -89 116 c-99 128 -269 375 -345 500
l-50 83 57 72 c63 80 316 338 332 338 5 0 33 -36 62 -81z m10995 -36 c-19
-352 -53 -606 -89 -667 -62 -106 -296 -397 -296 -369 0 5 9 71 20 148 23 168
40 384 40 516 0 86 2 98 21 115 41 36 200 225 251 299 29 41 54 75 56 75 2 0
1 -53 -3 -117z m-848 -880 c-7 -182 -25 -359 -53 -516 l-16 -89 -67 -43 c-157
-101 -477 -272 -488 -261 -3 3 -1 31 5 63 28 141 43 303 49 501 l6 213 176 89
c97 50 221 119 276 154 55 35 104 64 109 65 5 1 7 -72 3 -176z m-6662 38 c122
-15 174 -26 220 -46 275 -123 707 -274 1060 -370 107 -29 143 -44 210 -87 168
-110 274 -195 401 -322 139 -140 234 -267 302 -401 37 -76 96 -225 90 -230
-10 -9 -434 58 -683 107 l-160 32 -95 71 c-123 93 -220 152 -350 214 -327 156
-717 252 -1093 268 l-148 6 -198 97 c-315 155 -596 316 -864 494 l-129 85 39
10 c120 31 398 74 593 91 169 14 620 4 805 -19z m-4151 -47 c66 -111 248 -384
335 -499 l83 -110 -25 -100 c-25 -98 -45 -218 -50 -304 l-2 -44 -74 99 c-89
120 -236 342 -321 484 l-63 105 7 94 c4 51 16 139 27 195 28 138 30 146 38
146 4 0 24 -30 45 -66z m1949 -467 c150 -123 351 -271 525 -386 83 -56 152
-103 152 -105 0 -2 -46 -27 -102 -56 -132 -67 -279 -164 -394 -261 l-91 -77
-134 101 c-234 175 -549 440 -549 462 0 15 142 152 235 227 58 46 244 177 253
178 1 0 48 -38 105 -83z m7568 -29 c2 -180 -2 -290 -12 -383 -12 -118 -39
-276 -50 -296 -12 -23 -453 -137 -671 -174 -44 -7 -43 -11 -22 100 20 107 30
473 15 589 -6 49 -9 92 -7 94 3 2 71 17 153 32 177 33 388 82 498 114 44 13
83 24 88 25 4 1 7 -45 8 -101z m-2040 -155 l416 -6 12 -51 c46 -194 64 -481
42 -651 -7 -49 -14 -91 -15 -93 -9 -8 -565 -24 -639 -17 l-84 7 -6 121 c-10
206 -61 406 -155 597 -25 52 -48 99 -50 104 -3 5 11 6 29 2 19 -3 221 -9 450
-13z m3833 -50 c-4 -10 -61 -128 -127 -263 -67 -135 -122 -249 -123 -255 -2
-11 -94 -160 -159 -258 -24 -36 -42 -54 -48 -48 -5 5 -36 -19 -79 -63 -63 -64
-68 -67 -48 -31 102 183 168 312 226 440 60 134 75 159 141 230 41 44 106 122
146 172 40 51 73 93 74 93 1 0 0 -8 -3 -17z m-11173 -490 c35 -54 113 -163
173 -243 80 -106 129 -184 182 -287 39 -79 70 -143 68 -143 -5 0 -179 242
-263 368 -105 157 -183 286 -210 347 -37 84 -29 77 50 -42z m1039 -229 c83
-75 329 -279 443 -368 62 -48 87 -73 82 -84 -34 -90 -71 -322 -63 -403 2 -21
2 -39 0 -39 -19 0 -402 315 -571 469 l-94 86 7 115 c6 109 31 250 56 314 l11
29 32 -29 c18 -17 61 -57 97 -90z m9280 -49 c0 -9 -101 -208 -148 -290 -75
-132 -247 -389 -274 -411 -43 -34 -284 -159 -428 -222 -196 -86 -192 -86 -123
0 130 160 311 439 383 588 21 44 26 47 208 137 103 50 228 116 277 146 88 54
105 62 105 52z m-6709 -76 c510 -223 1179 -433 1719 -542 l113 -23 14 -39 c21
-59 27 -191 11 -244 l-14 -45 -32 51 c-164 256 -615 427 -1077 410 -283 -11
-548 -82 -759 -202 -44 -25 -85 -45 -92 -45 -32 0 -660 294 -741 347 -22 15
-23 17 -7 34 27 30 166 116 275 171 136 68 414 165 480 167 8 1 58 -17 110
-40z m5358 -516 c-104 -175 -261 -374 -429 -546 l-125 -128 -145 -29 c-244
-48 -740 -116 -740 -101 0 3 17 16 39 28 64 37 230 165 331 255 97 87 207 208
303 333 l53 70 150 27 c149 26 425 86 519 112 70 20 69 20 44 -21z m-3017
-130 c76 -9 138 -20 138 -23 0 -10 -79 -72 -145 -113 -102 -63 -297 -127 -391
-127 -23 0 -19 5 35 45 63 47 132 130 166 203 16 33 24 42 40 38 10 -3 81 -13
157 -23z m1123 -73 l330 -1 -95 -90 c-52 -49 -135 -119 -185 -154 -109 -79
-336 -194 -462 -234 -334 -108 -670 -100 -923 21 -67 32 -102 57 -164 120 -43
43 -77 81 -74 84 3 2 28 -4 56 -15 151 -60 428 -68 614 -17 182 49 368 146
488 255 31 28 51 39 65 36 11 -3 169 -5 350 -5z m-5778 -317 c56 -45 165 -127
243 -183 121 -88 146 -111 183 -168 101 -155 275 -340 430 -456 72 -55 105
-87 55 -54 -13 9 -54 34 -92 57 -173 106 -423 281 -586 409 -185 147 -251 205
-241 215 7 7 -6 29 -38 66 -96 113 -251 332 -251 357 0 3 44 -33 98 -79 53
-46 143 -120 199 -164z m1298 85 c110 -58 267 -136 348 -174 l148 -69 -6 -30
c-27 -133 -24 -273 9 -395 9 -30 14 -55 12 -57 -12 -12 -750 347 -786 383 -23
23 -21 307 4 394 23 83 24 84 49 67 12 -8 112 -61 222 -119z m2549 107 c41 -8
113 -27 158 -42 l83 -28 -55 -8 c-195 -28 -327 -70 -453 -142 l-77 -45 -83 20
c-143 37 -402 112 -410 119 -11 11 116 66 217 95 75 22 171 39 281 50 68 7
260 -4 339 -19z m276 -159 c-13 -34 -13 -160 -1 -204 9 -29 8 -32 -7 -28 -9 2
-63 12 -119 22 -57 10 -103 20 -103 23 0 11 84 108 120 138 43 37 113 84 117
79 2 -2 -1 -15 -7 -30z m3685 -462 c-122 -108 -396 -300 -620 -433 -190 -114
-283 -149 -623 -235 -240 -61 -635 -136 -648 -123 -2 2 31 14 73 26 321 93
737 282 1036 472 59 38 125 73 146 79 134 36 566 195 641 235 39 22 38 17 -5
-21z m-5036 -93 c86 -26 230 -67 321 -90 91 -24 171 -46 179 -50 7 -3 20 -24
29 -46 69 -178 273 -359 532 -472 42 -19 65 -33 53 -33 -32 0 -403 64 -553 95
-132 28 -499 118 -537 132 -13 5 -41 33 -64 63 -91 121 -149 280 -149 406 0
48 2 55 16 50 9 -4 87 -28 173 -55z m-1174 -433 c135 -60 362 -150 530 -209
111 -39 173 -68 240 -112 348 -225 836 -387 1350 -447 189 -22 136 -25 -95 -5
-304 27 -795 104 -851 135 -8 4 -51 18 -95 30 -407 111 -704 239 -976 419
-125 83 -259 192 -338 275 l-35 37 90 -41 c50 -23 131 -60 180 -82z m2830 98
c83 -8 222 -21 310 -27 171 -13 827 -17 960 -6 l80 6 -70 -19 c-96 -27 -327
-67 -459 -80 -322 -30 -673 8 -921 102 -81 31 -123 56 -75 45 14 -3 93 -13
175 -21z"/>
</g>
</svg>
